<svg width="22" height="20" viewBox="0 0 22 20" fill="none" xmlns="http://www.w3.org/2000/svg">
<path d="M1.51952 2.71092H3.72498L2.55311 1.53905V3.74452L3.72498 2.57264H1.51952L2.69139 3.74452V1.53905C2.69139 1.23905 2.56014 0.922641 2.3492 0.70936C2.1453 0.505453 1.81248 0.35311 1.51952 0.367172C1.21717 0.381235 0.90311 0.479672 0.689828 0.70936C0.478891 0.939047 0.347641 1.2203 0.347641 1.53905V3.74452C0.347641 4.37733 0.88436 4.91639 1.51952 4.91639H3.72498C4.3578 4.91639 4.89686 4.37967 4.89686 3.74452V1.53905C4.89686 0.906235 4.36014 0.367172 3.72498 0.367172H1.51952C1.21952 0.367172 0.90311 0.498422 0.689828 0.70936C0.485922 0.913266 0.333578 1.24608 0.347641 1.53905C0.361703 1.84139 0.460141 2.15545 0.689828 2.36873C0.919516 2.57967 1.20311 2.71092 1.51952 2.71092ZM7.98592 3.81483H19.0765C19.5851 3.81483 20.0961 3.82186 20.6047 3.81483H20.6258C20.9258 3.81483 21.2422 3.68358 21.4555 3.47264C21.6594 3.26873 21.8117 2.93592 21.7976 2.64295C21.7836 2.34061 21.6851 2.02655 21.4555 1.81327C21.2258 1.60233 20.9445 1.47108 20.6258 1.47108H9.53514C9.02655 1.47108 8.51561 1.46405 8.00702 1.47108H7.98592C7.68592 1.47108 7.36952 1.60233 7.15623 1.81327C6.95233 2.01717 6.79998 2.34998 6.81405 2.64295C6.82811 2.9453 6.92655 3.25936 7.15623 3.47264C7.38592 3.68123 7.66717 3.81483 7.98592 3.81483ZM1.51952 10.068H3.72498L2.55311 8.89608V11.1015L3.72498 9.92967H1.51952L2.69139 11.1015V8.89608C2.69139 8.59608 2.56014 8.27967 2.3492 8.06639C2.1453 7.86248 1.81248 7.71014 1.51952 7.7242C1.21717 7.73827 0.90311 7.8367 0.689828 8.06639C0.478891 8.29608 0.347641 8.57733 0.347641 8.89608V11.1015C0.347641 11.7344 0.88436 12.2734 1.51952 12.2734H3.72498C4.3578 12.2734 4.89686 11.7367 4.89686 11.1015V8.89608C4.89686 8.26327 4.36014 7.7242 3.72498 7.7242H1.51952C1.21952 7.7242 0.90311 7.85545 0.689828 8.06639C0.485922 8.2703 0.333578 8.60311 0.347641 8.89608C0.361703 9.19842 0.460141 9.51248 0.689828 9.72577C0.919516 9.9367 1.20311 10.068 1.51952 10.068ZM7.98592 11.1719H19.0765C19.5851 11.1719 20.0961 11.1789 20.6047 11.1719H20.6258C20.9258 11.1719 21.2422 11.0406 21.4555 10.8297C21.6594 10.6258 21.8117 10.293 21.7976 9.99998C21.7836 9.69764 21.6851 9.38358 21.4555 9.1703C21.2258 8.95936 20.9445 8.82811 20.6258 8.82811H9.53514C9.02655 8.82811 8.51561 8.82108 8.00702 8.82811H7.98592C7.68592 8.82811 7.36952 8.95936 7.15623 9.1703C6.95233 9.3742 6.79998 9.70702 6.81405 9.99998C6.82811 10.3023 6.92655 10.6164 7.15623 10.8297C7.38592 11.0383 7.66717 11.1719 7.98592 11.1719ZM1.51952 17.4273H3.72498L2.55311 16.2555V18.4609L3.72498 17.289H1.51952L2.69139 18.4609V16.2555C2.69139 15.9555 2.56014 15.639 2.3492 15.4258C2.1453 15.2219 1.81248 15.0695 1.51952 15.0836C1.21717 15.0976 0.90311 15.1961 0.689828 15.4258C0.478891 15.6555 0.347641 15.9367 0.347641 16.2555V18.4609C0.347641 19.0937 0.88436 19.6328 1.51952 19.6328H3.72498C4.3578 19.6328 4.89686 19.0961 4.89686 18.4609V16.2555C4.89686 15.6226 4.36014 15.0836 3.72498 15.0836H1.51952C1.21952 15.0836 0.90311 15.2148 0.689828 15.4258C0.485922 15.6297 0.333578 15.9625 0.347641 16.2555C0.361703 16.5578 0.460141 16.8719 0.689828 17.0851C0.919516 17.2937 1.20311 17.4273 1.51952 17.4273ZM7.98592 18.5289H19.0765C19.5851 18.5289 20.0961 18.5359 20.6047 18.5289H20.6258C20.9258 18.5289 21.2422 18.3976 21.4555 18.1867C21.6594 17.9828 21.8117 17.65 21.7976 17.357C21.7836 17.0547 21.6851 16.7406 21.4555 16.5273C21.2258 16.3164 20.9445 16.1851 20.6258 16.1851H9.53514C9.02655 16.1851 8.51561 16.1781 8.00702 16.1851H7.98592C7.68592 16.1851 7.36952 16.3164 7.15623 16.5273C6.95233 16.7312 6.79998 17.064 6.81405 17.357C6.82811 17.6594 6.92655 17.9734 7.15623 18.1867C7.38592 18.3953 7.66717 18.5289 7.98592 18.5289Z" fill="#045A5C"/>
</svg>
