<svg width="10" height="10" viewBox="0 0 10 10" fill="none" xmlns="http://www.w3.org/2000/svg">
<path fill-rule="evenodd" clip-rule="evenodd" d="M0.59415 8.14712C0.24653 8.49474 0.24653 9.05834 0.59415 9.40596C0.94177 9.75358 1.50537 9.75358 1.85299 9.40596L5.00013 6.25883L8.14726 9.40596C8.49488 9.75358 9.05849 9.75358 9.40611 9.40596C9.75373 9.05834 9.75373 8.49474 9.40611 8.14712L6.25897 4.99998L9.40605 1.8529C9.75367 1.50528 9.75367 0.941679 9.40605 0.594059C9.05843 0.246439 8.49483 0.246438 8.14721 0.594059L5.00013 3.74114L1.85305 0.594059C1.50543 0.246438 0.941824 0.246439 0.594204 0.594059C0.246584 0.941679 0.246583 1.50528 0.594204 1.8529L3.74129 4.99998L0.59415 8.14712Z" fill="#28E3E9"/>
</svg>
